<?xml version="1.0" encoding="utf-8"?>
<!-- Generator: Adobe Illustrator 16.0.0, SVG Export Plug-In . SVG Version: 6.00 Build 0)  -->
<!DOCTYPE svg PUBLIC "-//W3C//DTD SVG 1.1//EN" "http://www.w3.org/Graphics/SVG/1.1/DTD/svg11.dtd">
<svg version="1.1" id="Calque_1" xmlns="http://www.w3.org/2000/svg" xmlns:xlink="http://www.w3.org/1999/xlink" x="0px" y="0px"
	 width="1112px" height="268.255px" viewBox="0 0 1112 268.255" enable-background="new 0 0 1112 268.255" xml:space="preserve">
<path opacity="0.5" fill-rule="evenodd" clip-rule="evenodd" fill="#7F8080" d="M26.273,108.223
	c-0.942,5.99,9.196,24.388,113.17,25.671c103.976,1.284,124.957-16.686,125.9-21.393c1.887-8.843-162.444-19.112-183.899-17.97
	S27.218,102.232,26.273,108.223z"/>
<linearGradient id="SVGID_1_" gradientUnits="userSpaceOnUse" x1="-46.2036" y1="80.6992" x2="303.51" y2="90.5231">
	<stop  offset="0.0534" style="stop-color:#DCDCDC"/>
	<stop  offset="0.1332" style="stop-color:#000000"/>
	<stop  offset="0.5285" style="stop-color:#FFFFFF"/>
	<stop  offset="0.7087" style="stop-color:#949494"/>
	<stop  offset="0.8963" style="stop-color:#2A2A2A"/>
	<stop  offset="0.9802" style="stop-color:#000000"/>
	<stop  offset="0.9987" style="stop-color:#B9B8B8"/>
	<stop  offset="1" style="stop-color:#B9B8B8"/>
</linearGradient>
<path fill-rule="evenodd" clip-rule="evenodd" fill="url(#SVGID_1_)" d="M144.296,38.079c62.648,0.245,123.073,15.158,124.487,47.92
	c0,30.072-69.922,48.41-124.487,47.92c-57.594,1.222-116.604-25.548-114.583-47.065C29.916,63.262,69.323,37.712,144.296,38.079z"/>
<path fill-rule="evenodd" clip-rule="evenodd" fill="#3A72B7" d="M377.828,21.839l24.048,36.795H253.34v-5.99h-11.317v5.99H135.926
	v3.424h106.097v3.422h-9.902l-9.902,3.422h-14.146l-1.416,1.712c0,0-61.358-1.069-79.218,12.836
	c-17.859,13.905,63.656,18.825,63.656,18.825l-9.902,6.847h-39.608c0,0-2.004,0-5.659-1.713c-3.653-1.711-4.244-2.566-4.244-2.566
	h-14.146c0,0,3.537,3.779,11.317,5.99c7.781,2.21,9.902,1.71,9.902,1.71h181.071v-3.421H253.34l5.657-7.703
	c0,0,24.993,0.144,55.17-4.278c30.179-4.421,48.098-11.125,48.098-11.125l55.168-0.854l19.806,32.517c0,0-42.35,1.71-79.218,10.267
	c-36.869,8.559-53.756,17.972-53.756,17.972L19.928,97.997c0,0,21.124-11.536,48.097-21.392
	c21.93-8.014,45.268-14.546,45.268-14.546l-73.56-0.856v-3.423h90.535c0,0,62.276-15.591,108.955-22.34
	C285.635,28.73,377.774,21.845,377.828,21.839z"/>
<path fill-rule="evenodd" clip-rule="evenodd" fill="#3A72B7" d="M209.487,74.893L176.95,89.441h-38.193
	c0,0-11.789-9.984,26.878-12.836C204.3,73.753,209.487,74.893,209.487,74.893z"/>
<path fill-rule="evenodd" clip-rule="evenodd" fill="#3A72B7" d="M199.584,86.017l24.048-11.125h38.196l-24.051,11.125H199.584z"/>
<path fill-rule="evenodd" clip-rule="evenodd" fill="#3A72B7" d="M253.34,62.059h149.949l7.074,11.979h-87.706l-11.318-2.567h33.952
	l-5.66-5.99h-67.902l-18.389-1.711V62.059z"/>
<path fill-rule="evenodd" clip-rule="evenodd" fill="#3A72B7" d="M193.927,109.123l9.903-5.99h42.438l-5.658,5.99"/>
<rect x="176.88" y="164.175" fill-rule="evenodd" clip-rule="evenodd" fill="none" width="900.692" height="45.098"/>
<text transform="matrix(1 0 0 1 176.8804 190.3828)"><tspan x="0" y="0" fill="#003C8A" font-family="'BookAntiqua'" font-size="36">HAMMOCK HELICOPTER Sales &amp; Services SDNBHD  </tspan><tspan x="892.758" y="0" fill="#003C8A" font-family="'MyriadPro-Regular'" font-size="36">  </tspan></text>
<rect x="974.404" y="201.86" fill-rule="evenodd" clip-rule="evenodd" fill="none" width="79.168" height="14.824"/>
<text transform="matrix(1 0 0 1 974.4043 212.0518)" fill="#003C8A" font-family="'BookAntiqua'" font-size="14">(643278-V)</text>
<rect x="26" y="233.255" fill-rule="evenodd" clip-rule="evenodd" fill="#808080" width="1059" height="7"/>
</svg>
