<?xml version="1.0" encoding="utf-8"?>
<!-- Generator: Adobe Illustrator 16.0.0, SVG Export Plug-In . SVG Version: 6.00 Build 0)  -->
<!DOCTYPE svg PUBLIC "-//W3C//DTD SVG 1.1//EN" "http://www.w3.org/Graphics/SVG/1.1/DTD/svg11.dtd">
<svg version="1.1" id="Calque_1" xmlns="http://www.w3.org/2000/svg" xmlns:xlink="http://www.w3.org/1999/xlink" x="0px" y="0px"
	 width="960px" height="230.065px" viewBox="0 0 960 230.065" enable-background="new 0 0 960 230.065" xml:space="preserve">
<path opacity="0.5" fill-rule="evenodd" clip-rule="evenodd" fill="#7F8080" d="M23.08,147.942
	c-0.703,7.391,6.863,30.088,84.458,31.672c77.596,1.584,93.254-20.586,93.958-26.393c1.408-10.91-121.23-23.579-137.243-22.17
	C48.241,132.459,23.785,140.552,23.08,147.942z"/>
<linearGradient id="SVGID_1_" gradientUnits="userSpaceOnUse" x1="-30.9873" y1="116.5923" x2="229.9868" y2="123.9234">
	<stop  offset="0.0534" style="stop-color:#DCDCDC"/>
	<stop  offset="0.1332" style="stop-color:#000000"/>
	<stop  offset="0.5285" style="stop-color:#FFFFFF"/>
	<stop  offset="0.7087" style="stop-color:#949494"/>
	<stop  offset="0.8963" style="stop-color:#2A2A2A"/>
	<stop  offset="0.9802" style="stop-color:#000000"/>
	<stop  offset="0.9987" style="stop-color:#B9B8B8"/>
	<stop  offset="1" style="stop-color:#B9B8B8"/>
</linearGradient>
<path fill-rule="evenodd" clip-rule="evenodd" fill="url(#SVGID_1_)" d="M111.159,61.405c46.754,0.303,91.848,18.701,92.903,59.12
	c0,37.101-52.182,59.724-92.903,59.121c-42.982,1.508-87.02-31.52-85.512-58.065C25.798,92.473,55.207,60.953,111.159,61.405z"/>
<path fill-rule="evenodd" clip-rule="evenodd" fill="#3A72B7" d="M285.441,41.37l17.947,45.396H192.538v-7.391h-8.446v7.391h-79.179
	v4.224h79.179v4.222h-7.39l-7.39,4.223h-10.557l-1.056,2.112c0,0-45.791-1.319-59.12,15.836
	c-13.328,17.155,47.506,23.225,47.506,23.225l-7.39,8.447h-29.56c0,0-1.496,0-4.223-2.113c-2.727-2.111-3.167-3.166-3.167-3.166
	H91.189c0,0,2.64,4.662,8.446,7.391c5.807,2.727,7.39,2.109,7.39,2.109h135.131v-4.221h-49.619l4.222-9.504
	c0,0,18.652,0.178,41.173-5.278c22.522-5.454,35.895-13.725,35.895-13.725l41.172-1.055l14.781,40.118
	c0,0-31.605,2.109-59.12,12.666c-27.515,10.559-40.118,22.172-40.118,22.172L18.344,135.327c0,0,15.764-14.232,35.895-26.392
	c16.366-9.887,33.783-17.946,33.783-17.946l-54.897-1.057v-4.223h67.565c0,0,46.476-19.235,81.312-27.562
	C216.639,49.872,285.401,41.376,285.441,41.37z"/>
<path fill-rule="evenodd" clip-rule="evenodd" fill="#3A72B7" d="M159.81,106.823l-24.282,17.948h-28.503
	c0,0-8.798-12.317,20.059-15.836C155.939,105.417,159.81,106.823,159.81,106.823z"/>
<path fill-rule="evenodd" clip-rule="evenodd" fill="#3A72B7" d="M152.42,120.547l17.947-13.725h28.505l-17.949,13.725H152.42z"/>
<path fill-rule="evenodd" clip-rule="evenodd" fill="#3A72B7" d="M192.538,90.989h111.905l5.279,14.779h-65.454l-8.447-3.167h25.338
	l-4.224-7.391h-50.674l-13.724-2.111V90.989z"/>
<path fill-rule="evenodd" clip-rule="evenodd" fill="#3A72B7" d="M148.198,149.054l7.39-7.391h31.671l-4.223,7.391"/>
<g>
	<path fill="#003C8A" d="M344.823,169.223v4.912c0,0.845,0.029,1.837,0.088,2.976c0.07,1.596,0.129,2.479,0.176,2.649
		s0.217,0.343,0.51,0.52c0.293,0.176,0.768,0.264,1.424,0.264h1.195v1.107c-1.523-0.082-2.994-0.123-4.412-0.123
		c-1.371,0-3.334,0.041-5.889,0.123v-1.107h1.09c1.23,0,1.957-0.208,2.18-0.624s0.334-2.323,0.334-5.722v-10.6
		c0-3.07-0.114-4.813-0.343-5.229s-0.882-0.624-1.96-0.624h-1.301v-1.107c1.934,0.082,3.732,0.123,5.396,0.123
		c1.676,0,3.311-0.041,4.904-0.123v1.107h-0.756c-1.09,0-1.764,0.088-2.021,0.265c-0.258,0.176-0.416,0.463-0.475,0.862
		c-0.094,0.646-0.141,2.213-0.141,4.702v4.015c2.086,0.082,4.74,0.123,7.963,0.123c2.73,0,4.951-0.041,6.662-0.123v-3.434
		c0-2.008-0.07-3.692-0.211-5.054c-0.047-0.481-0.205-0.828-0.475-1.039c-0.27-0.212-0.82-0.317-1.652-0.317h-1.266v-1.107
		c1.793,0.082,3.492,0.123,5.098,0.123c1.734,0,3.539-0.041,5.414-0.123v1.107h-1.336c-0.902,0-1.479,0.1-1.731,0.299
		s-0.404,0.565-0.457,1.099s-0.079,2.212-0.079,5.036v9.721c0,3.598,0.103,5.604,0.308,6.021s0.847,0.624,1.925,0.624h1.371v1.107
		c-1.617-0.082-3.287-0.123-5.01-0.123c-1.969,0-3.803,0.041-5.502,0.123v-1.107h1.213c0.891,0,1.465-0.103,1.723-0.308
		c0.258-0.206,0.416-0.59,0.475-1.153c0.129-1.209,0.193-2.97,0.193-5.282v-4.577c-1.652-0.082-3.762-0.123-6.328-0.123
		C349.464,169.1,346.698,169.141,344.823,169.223z"/>
	<path fill="#003C8A" d="M385.522,173.213h-10.169l-1.192,2.83c-0.785,1.875-1.178,3.023-1.178,3.445c0,0.27,0.073,0.463,0.22,0.58
		s0.519,0.211,1.116,0.281l1.688,0.193v1.107c-1.125-0.082-2.391-0.123-3.797-0.123c-1.688,0-3.17,0.041-4.447,0.123v-1.107
		l0.527-0.018c0.82-0.023,1.351-0.108,1.591-0.255s0.495-0.507,0.765-1.081c0.832-1.688,1.682-3.51,2.549-5.467l4.834-10.951
		c1.289-2.906,2.168-5.016,2.637-6.328h1.195l8.895,20.689c0.598,1.406,0.996,2.253,1.195,2.54s0.428,0.492,0.686,0.615
		s0.838,0.208,1.74,0.255v1.107c-1.523-0.082-2.977-0.123-4.359-0.123c-1.289,0-3.006,0.041-5.15,0.123v-1.107l1.74-0.105
		c0.621-0.047,0.99-0.111,1.107-0.193c0.176-0.129,0.264-0.293,0.264-0.492c0-0.211-0.176-0.762-0.527-1.652L385.522,173.213z
		 M376.008,171.771h8.855l-4.425-10.561L376.008,171.771z"/>
	<path fill="#003C8A" d="M421.692,160.433l-5.226,10.873c-1.958,4.081-3.565,7.647-4.82,10.696h-0.703
		c-0.434-1.044-1.677-3.725-3.73-8.041l-6.298-13.039v13.591c0,3.164,0.126,4.961,0.38,5.389s1.04,0.642,2.359,0.642h0.654v1.107
		c-1.633-0.082-2.959-0.123-3.981-0.123c-0.74,0-2.214,0.041-4.421,0.123v-1.107h1.143c0.773,0,1.289-0.111,1.547-0.334
		s0.416-0.627,0.475-1.213c0.152-1.641,0.229-3.41,0.229-5.309v-9.949c0-2.402-0.053-3.99-0.158-4.764
		c-0.047-0.398-0.22-0.703-0.519-0.914s-0.894-0.316-1.784-0.316h-0.932v-1.107c2.04,0.082,3.323,0.123,3.851,0.123
		c0.668,0,1.617-0.041,2.848-0.123c1.419,3.154,3.056,6.631,4.91,10.43l4.627,9.516l4.274-8.813
		c1.501-3.083,3.213-6.794,5.136-11.133c1.465,0.082,2.496,0.123,3.094,0.123c0.691,0,1.939-0.041,3.744-0.123v1.107h-1.148
		c-1.037,0-1.67,0.179-1.9,0.536c-0.229,0.357-0.344,1.644-0.344,3.858v12.85c0,2.859,0.121,4.5,0.362,4.922
		c0.241,0.422,0.916,0.633,2.023,0.633h1.007v1.107c-1.629-0.082-3.188-0.123-4.676-0.123c-1.641,0-3.357,0.041-5.15,0.123v-1.107
		h1.16c0.926,0,1.485-0.202,1.679-0.606s0.29-2.142,0.29-5.212V160.433z"/>
	<path fill="#003C8A" d="M455.741,160.433l-5.226,10.873c-1.959,4.081-3.565,7.647-4.82,10.696h-0.703
		c-0.434-1.044-1.678-3.725-3.729-8.041l-6.299-13.039v13.591c0,3.164,0.127,4.961,0.38,5.389s1.04,0.642,2.359,0.642h0.653v1.107
		c-1.633-0.082-2.959-0.123-3.98-0.123c-0.74,0-2.214,0.041-4.422,0.123v-1.107h1.143c0.773,0,1.289-0.111,1.547-0.334
		s0.416-0.627,0.475-1.213c0.152-1.641,0.229-3.41,0.229-5.309v-9.949c0-2.402-0.053-3.99-0.158-4.764
		c-0.047-0.398-0.22-0.703-0.519-0.914s-0.894-0.316-1.784-0.316h-0.932v-1.107c2.039,0.082,3.323,0.123,3.851,0.123
		c0.668,0,1.617-0.041,2.848-0.123c1.42,3.154,3.057,6.631,4.91,10.43l4.628,9.516l4.273-8.813
		c1.501-3.083,3.214-6.794,5.137-11.133c1.465,0.082,2.496,0.123,3.094,0.123c0.691,0,1.939-0.041,3.744-0.123v1.107h-1.148
		c-1.037,0-1.67,0.179-1.899,0.536s-0.345,1.644-0.345,3.858v12.85c0,2.859,0.12,4.5,0.362,4.922
		c0.241,0.422,0.916,0.633,2.023,0.633h1.007v1.107c-1.629-0.082-3.188-0.123-4.676-0.123c-1.641,0-3.357,0.041-5.15,0.123v-1.107
		h1.16c0.926,0,1.485-0.202,1.679-0.606s0.29-2.142,0.29-5.212V160.433z"/>
	<path fill="#003C8A" d="M463.985,169.135c0-3.855,1.243-6.961,3.729-9.316c2.485-2.355,5.798-3.533,9.938-3.533
		c4.058,0,7.238,1.093,9.542,3.278c2.305,2.186,3.457,5.089,3.457,8.71c0,3.902-1.337,7.166-4.011,9.791
		c-2.673,2.625-6.045,3.938-10.114,3.938c-2.544,0-4.737-0.516-6.578-1.547s-3.295-2.537-4.362-4.518
		S463.985,171.689,463.985,169.135z M467.554,167.693c0,2.648,0.454,4.954,1.363,6.917s2.126,3.434,3.65,4.412
		c1.525,0.979,3.268,1.468,5.227,1.468c1.817,0,3.406-0.416,4.768-1.248c1.36-0.832,2.431-2.074,3.211-3.727s1.17-3.662,1.17-6.029
		c0-2.484-0.432-4.608-1.293-6.372c-0.862-1.764-2.044-3.091-3.545-3.981c-1.502-0.891-3.279-1.336-5.332-1.336
		c-1.876,0-3.495,0.393-4.855,1.178s-2.428,1.937-3.202,3.454S467.554,165.701,467.554,167.693z"/>
	<path fill="#003C8A" d="M514.083,162.982l-0.141-3.129c-1.043-0.691-2.136-1.207-3.278-1.547s-2.335-0.51-3.577-0.51
		c-3.164,0-5.698,0.961-7.603,2.883s-2.856,4.494-2.856,7.717c0,2.262,0.483,4.277,1.45,6.047s2.341,3.17,4.122,4.201
		s3.662,1.547,5.643,1.547c1.57,0,3.123-0.182,4.658-0.545c1.148-0.27,2.303-0.832,3.463-1.688l0.369,0.352
		c-0.246,0.539-0.475,1.084-0.686,1.635c-1.371,0.68-2.751,1.192-4.14,1.538s-2.786,0.519-4.192,0.519
		c-2.883,0-5.417-0.557-7.603-1.67s-3.864-2.651-5.036-4.614s-1.758-4.181-1.758-6.653s0.592-4.685,1.775-6.636
		s2.856-3.463,5.019-4.535s4.819-1.608,7.972-1.608c1.652,0,3.586,0.27,5.801,0.809c1.102,0.258,1.998,0.451,2.689,0.58
		c-0.527,1.254-0.832,3.023-0.914,5.309H514.083z"/>
	<path fill="#003C8A" d="M528.075,167.799l11.988,11.162l1.09,1.037c0.223,0.223,0.448,0.369,0.677,0.439s0.606,0.105,1.134,0.105
		v1.107c-0.961-0.082-1.805-0.123-2.531-0.123c-0.762,0-1.594,0.041-2.496,0.123l-12.111-11.496c-0.41-0.387-0.662-0.58-0.756-0.58
		c-0.246,0-0.369,0.229-0.369,0.686v5.361c0,2.613,0.053,4.043,0.159,4.289c0.177,0.422,0.813,0.633,1.908,0.633h1.325v1.107
		c-1.913-0.082-3.609-0.123-5.089-0.123c-1.55,0-3.217,0.041-5.001,0.123v-1.107h1.424c0.938,0,1.5-0.173,1.688-0.519
		s0.281-1.837,0.281-4.474v-11.76c0-3.223-0.094-5.036-0.281-5.44s-0.75-0.606-1.688-0.606h-1.424v-1.107
		c2.148,0.082,3.703,0.123,4.666,0.123c0.692,0,2.501-0.041,5.424-0.123v1.107l-1.396,0.053c-0.802,0.035-1.308,0.144-1.52,0.325
		c-0.213,0.182-0.345,0.542-0.398,1.081c-0.053,0.539-0.079,2.092-0.079,4.658v4.746h0.246c0.961-0.785,1.787-1.503,2.479-2.153
		s1.828-1.79,3.41-3.419l4.992-5.168v-1.23c1.289,0.082,2.355,0.123,3.199,0.123c0.879,0,1.852-0.041,2.918-0.123v1.107h-0.949
		c-0.844,0-1.559,0.161-2.145,0.483s-1.939,1.456-4.061,3.401L528.075,167.799z"/>
	<path fill="#003C8A" d="M559.839,169.223v4.912c0,0.845,0.029,1.837,0.088,2.976c0.07,1.596,0.129,2.479,0.176,2.649
		s0.217,0.343,0.51,0.52c0.293,0.176,0.768,0.264,1.424,0.264h1.195v1.107c-1.523-0.082-2.994-0.123-4.412-0.123
		c-1.371,0-3.334,0.041-5.889,0.123v-1.107h1.09c1.23,0,1.957-0.208,2.18-0.624s0.334-2.323,0.334-5.722v-10.6
		c0-3.07-0.114-4.813-0.343-5.229s-0.882-0.624-1.96-0.624h-1.301v-1.107c1.934,0.082,3.732,0.123,5.396,0.123
		c1.676,0,3.311-0.041,4.904-0.123v1.107h-0.756c-1.09,0-1.764,0.088-2.021,0.265c-0.258,0.176-0.416,0.463-0.475,0.862
		c-0.094,0.646-0.141,2.213-0.141,4.702v4.015c2.086,0.082,4.74,0.123,7.963,0.123c2.73,0,4.951-0.041,6.662-0.123v-3.434
		c0-2.008-0.07-3.692-0.211-5.054c-0.047-0.481-0.205-0.828-0.475-1.039c-0.27-0.212-0.82-0.317-1.652-0.317h-1.266v-1.107
		c1.793,0.082,3.492,0.123,5.098,0.123c1.734,0,3.539-0.041,5.414-0.123v1.107h-1.336c-0.902,0-1.479,0.1-1.731,0.299
		s-0.404,0.565-0.457,1.099s-0.079,2.212-0.079,5.036v9.721c0,3.598,0.103,5.604,0.308,6.021s0.847,0.624,1.925,0.624h1.371v1.107
		c-1.617-0.082-3.287-0.123-5.01-0.123c-1.969,0-3.803,0.041-5.502,0.123v-1.107h1.213c0.891,0,1.465-0.103,1.723-0.308
		c0.258-0.206,0.416-0.59,0.475-1.153c0.129-1.209,0.193-2.97,0.193-5.282v-4.577c-1.652-0.082-3.762-0.123-6.328-0.123
		C564.479,169.1,561.714,169.141,559.839,169.223z"/>
	<path fill="#003C8A" d="M590.073,169.697v4.314l0.018,2.482c0,1.55,0.018,2.682,0.053,3.398c1.714,0.129,3.551,0.193,5.511,0.193
		c1.314,0,2.417-0.059,3.31-0.176c0.575-0.07,1.186-0.223,1.831-0.457c0.293-1.031,0.592-2.32,0.897-3.867h1.16
		c-0.316,2.574-0.475,4.29-0.475,5.147l0.035,0.794c-1.348,0.117-2.672,0.176-3.973,0.176l-2.76-0.053
		c-3.047-0.082-5.285-0.123-6.715-0.123c-1.371,0-3.193,0.041-5.467,0.123v-1.107h0.545c1.02,0,1.661-0.1,1.925-0.299
		s0.439-0.668,0.527-1.406s0.132-2.367,0.132-4.887v-9.65c0-1.582-0.038-2.877-0.114-3.885s-0.158-1.608-0.246-1.802
		s-0.214-0.343-0.378-0.448s-0.668-0.199-1.512-0.281l-1.354-0.141v-1.107h1.898l1.863,0.062c1.043,0.041,1.834,0.062,2.373,0.062
		l6.75-0.103l3.199-0.021c1.09-0.012,2.191,0.029,3.305,0.123c-0.445,1.392-0.691,3.202-0.738,5.432h-1.195
		c0-1.289-0.064-2.361-0.193-3.217c-1.383-0.516-3.082-0.773-5.098-0.773c-1.605,0-3.287,0.07-5.045,0.211
		c0.012,1.1,0,2.199-0.035,3.299l-0.035,2.701v3.563c1.16,0.082,2.186,0.123,3.076,0.123c2.789,0,4.368-0.097,4.737-0.29
		s0.554-0.794,0.554-1.802v-1.143h1.195c-0.082,1.77-0.123,3.182-0.123,4.236c0,1.113,0.041,2.426,0.123,3.938h-1.195v-1.02
		c0-1.125-0.22-1.813-0.659-2.065s-1.989-0.378-4.649-0.378C592.147,169.574,591.128,169.615,590.073,169.697z"/>
	<path fill="#003C8A" d="M611.888,179.928c1.148,0.059,2.268,0.088,3.357,0.088c2.203,0,3.926-0.059,5.168-0.176
		c0.867-0.094,1.764-0.264,2.689-0.51l1.055-4.131h1.143c-0.293,2.215-0.521,4.283-0.686,6.205
		c-1.055,0.176-2.496,0.264-4.324,0.264l-8.367-0.141c-1.125,0-2.877,0.064-5.256,0.193v-0.932c0.938-0.41,1.491-0.85,1.661-1.318
		s0.255-2.326,0.255-5.572v-9.668c0-3.516-0.085-5.476-0.255-5.88s-0.647-0.606-1.433-0.606h-1.916v-1.107
		c2.789,0.082,4.641,0.123,5.555,0.123c1.219,0,2.871-0.041,4.957-0.123v1.107h-2.18c-0.621,0-1.014,0.179-1.178,0.536
		s-0.246,1.843-0.246,4.456v11.197l0.053,4.957L611.888,179.928z"/>
	<path fill="#003C8A" d="M627.146,180.543h1.107c1.09,0,1.743-0.264,1.96-0.791s0.325-3.053,0.325-7.576v-5.959
		c0-4.688-0.094-7.271-0.281-7.752s-0.75-0.721-1.688-0.721h-1.424v-1.107c1.948,0.082,3.874,0.123,5.775,0.123
		c1.585,0,3.023-0.041,4.314-0.123v1.107h-1.36c-0.837,0-1.36,0.1-1.572,0.299c-0.213,0.199-0.336,0.703-0.371,1.512
		c-0.06,1.254-0.089,3.486-0.089,6.697v6.064c0,4.559,0.1,7.069,0.3,7.532s0.843,0.694,1.927,0.694h1.166v1.107
		c-1.444-0.082-3.018-0.123-4.719-0.123c-1.984,0-3.774,0.041-5.371,0.123V180.543z"/>
	<path fill="#003C8A" d="M660.808,162.982l-0.141-3.129c-1.043-0.691-2.136-1.207-3.278-1.547s-2.335-0.51-3.577-0.51
		c-3.164,0-5.698,0.961-7.603,2.883s-2.856,4.494-2.856,7.717c0,2.262,0.483,4.277,1.45,6.047s2.341,3.17,4.122,4.201
		s3.662,1.547,5.643,1.547c1.57,0,3.123-0.182,4.658-0.545c1.148-0.27,2.303-0.832,3.463-1.688l0.369,0.352
		c-0.246,0.539-0.475,1.084-0.686,1.635c-1.371,0.68-2.751,1.192-4.14,1.538s-2.786,0.519-4.192,0.519
		c-2.883,0-5.417-0.557-7.603-1.67s-3.864-2.651-5.036-4.614s-1.758-4.181-1.758-6.653s0.592-4.685,1.775-6.636
		s2.856-3.463,5.019-4.535s4.819-1.608,7.972-1.608c1.652,0,3.586,0.27,5.801,0.809c1.102,0.258,1.998,0.451,2.689,0.58
		c-0.527,1.254-0.832,3.023-0.914,5.309H660.808z"/>
	<path fill="#003C8A" d="M664.534,169.135c0-3.855,1.243-6.961,3.729-9.316c2.485-2.355,5.798-3.533,9.938-3.533
		c4.058,0,7.238,1.093,9.542,3.278c2.305,2.186,3.457,5.089,3.457,8.71c0,3.902-1.337,7.166-4.011,9.791
		c-2.673,2.625-6.045,3.938-10.114,3.938c-2.544,0-4.737-0.516-6.578-1.547s-3.295-2.537-4.362-4.518
		S664.534,171.689,664.534,169.135z M668.103,167.693c0,2.648,0.454,4.954,1.363,6.917s2.126,3.434,3.65,4.412
		c1.525,0.979,3.268,1.468,5.227,1.468c1.817,0,3.406-0.416,4.768-1.248c1.36-0.832,2.431-2.074,3.211-3.727s1.17-3.662,1.17-6.029
		c0-2.484-0.432-4.608-1.293-6.372c-0.862-1.764-2.044-3.091-3.545-3.981c-1.502-0.891-3.279-1.336-5.332-1.336
		c-1.876,0-3.495,0.393-4.855,1.178s-2.428,1.937-3.202,3.454S668.103,165.701,668.103,167.693z"/>
	<path fill="#003C8A" d="M699.849,158.553c-0.082,1.688-0.123,3.486-0.123,5.396v10.037c0,3.527,0.105,5.502,0.316,5.924
		s0.902,0.633,2.074,0.633h1.213v1.107c-2.074-0.082-3.709-0.123-4.904-0.123c-1.055,0-2.924,0.041-5.607,0.123v-1.107h1.582
		c0.738,0,1.213-0.091,1.424-0.272s0.346-0.551,0.404-1.107s0.123-2.259,0.193-5.106v-9.387l-0.053-3.639
		c-0.023-1.512-0.185-2.438-0.483-2.777s-1.028-0.51-2.188-0.51h-0.879v-1.107c1.465,0.059,3.322,0.088,5.572,0.088
		c1.324,0,2.795-0.035,4.412-0.105c1.066-0.047,1.875-0.07,2.426-0.07c2.836,0,4.898,0.516,6.188,1.547
		c1.277,1.031,1.916,2.426,1.916,4.184c0,1.277-0.369,2.505-1.107,3.683s-1.784,2.124-3.138,2.839s-2.798,1.072-4.333,1.072
		c-0.703,0-1.582-0.111-2.637-0.334l-0.352-1.318c1.031,0.258,1.893,0.387,2.584,0.387c1.617,0,2.9-0.489,3.85-1.468
		s1.424-2.317,1.424-4.017c0-1.641-0.507-2.921-1.521-3.841s-2.522-1.38-4.526-1.38
		C702.438,157.902,701.196,158.119,699.849,158.553z"/>
	<path fill="#003C8A" d="M726.655,158.236c-0.129,1.758-0.193,3.609-0.193,5.555v10.02c0,3.727,0.094,5.78,0.281,6.161
		s0.855,0.571,2.004,0.571h1.318v1.107c-2.074-0.082-3.832-0.123-5.273-0.123c-1.453,0-3.199,0.041-5.238,0.123v-1.107h1.477
		c0.773,0,1.277-0.103,1.512-0.308s0.381-0.606,0.439-1.204c0.117-1.371,0.176-3.141,0.176-5.309v-10.037
		c0-1.98-0.041-3.797-0.123-5.449h-1.789c-2.888,0-4.478,0.067-4.77,0.202s-0.485,0.659-0.579,1.573l-0.245,2.355h-1.107
		l0.035-2.092c0-0.844-0.07-2.057-0.211-3.639c6.328,0.082,10.049,0.123,11.162,0.123l9.721-0.123
		c-0.223,1.98-0.352,3.891-0.387,5.73h-1.107l-0.176-2.303c-0.07-0.797-0.17-1.269-0.299-1.415s-0.416-0.237-0.861-0.272
		c-1.289-0.094-2.754-0.141-4.395-0.141H726.655z"/>
	<path fill="#003C8A" d="M743.812,169.697v4.314l0.018,2.482c0,1.55,0.018,2.682,0.053,3.398c1.714,0.129,3.551,0.193,5.511,0.193
		c1.314,0,2.417-0.059,3.31-0.176c0.575-0.07,1.186-0.223,1.831-0.457c0.293-1.031,0.592-2.32,0.897-3.867h1.16
		c-0.316,2.574-0.475,4.29-0.475,5.147l0.035,0.794c-1.348,0.117-2.672,0.176-3.973,0.176l-2.76-0.053
		c-3.047-0.082-5.285-0.123-6.715-0.123c-1.371,0-3.193,0.041-5.467,0.123v-1.107h0.545c1.02,0,1.661-0.1,1.925-0.299
		s0.439-0.668,0.527-1.406s0.132-2.367,0.132-4.887v-9.65c0-1.582-0.038-2.877-0.114-3.885s-0.158-1.608-0.246-1.802
		s-0.214-0.343-0.378-0.448s-0.668-0.199-1.512-0.281l-1.354-0.141v-1.107h1.898l1.863,0.062c1.043,0.041,1.834,0.062,2.373,0.062
		l6.75-0.103l3.199-0.021c1.09-0.012,2.191,0.029,3.305,0.123c-0.445,1.392-0.691,3.202-0.738,5.432h-1.195
		c0-1.289-0.064-2.361-0.193-3.217c-1.383-0.516-3.082-0.773-5.098-0.773c-1.605,0-3.287,0.07-5.045,0.211
		c0.012,1.1,0,2.199-0.035,3.299l-0.035,2.701v3.563c1.16,0.082,2.186,0.123,3.076,0.123c2.789,0,4.368-0.097,4.737-0.29
		s0.554-0.794,0.554-1.802v-1.143h1.195c-0.082,1.77-0.123,3.182-0.123,4.236c0,1.113,0.041,2.426,0.123,3.938h-1.195v-1.02
		c0-1.125-0.22-1.813-0.659-2.065s-1.989-0.378-4.649-0.378C745.886,169.574,744.866,169.615,743.812,169.697z"/>
	<path fill="#003C8A" d="M771.69,168.959c1.148,1.652,2.572,3.574,4.271,5.766l3.375,4.377c0.598,0.75,0.996,1.178,1.195,1.283
		s0.404,0.158,0.615,0.158h0.457v1.107c-0.973-0.082-1.822-0.123-2.549-0.123c-0.668,0-1.371,0.041-2.109,0.123l-6.223-8.402
		c-1.16-1.547-2.402-3.059-3.727-4.535l0.176-0.598c0.68,0.059,1.184,0.088,1.512,0.088c1.957,0,3.489-0.504,4.597-1.512
		s1.661-2.355,1.661-4.043c0-1.512-0.469-2.692-1.406-3.542s-2.291-1.274-4.061-1.274c-1.23,0-2.467,0.229-3.709,0.686
		c-0.141,1.863-0.211,3.855-0.211,5.977v8.49c0,4.137,0.1,6.431,0.299,6.882s0.844,0.677,1.934,0.677h1.371v1.107
		c-1.945-0.082-3.557-0.123-4.834-0.123c-1.008,0-2.83,0.041-5.467,0.123v-1.107h1.318c1.008,0,1.605-0.22,1.793-0.659
		s0.281-2.751,0.281-6.935v-8.455c0-3.633-0.108-5.666-0.325-6.1s-0.923-0.65-2.118-0.65h-0.949v-1.107
		c2.18,0.082,3.844,0.123,4.992,0.123c0.773,0,1.887-0.029,3.34-0.088c1.688-0.059,2.9-0.088,3.639-0.088
		c2.027,0,3.565,0.214,4.614,0.642s1.846,1.046,2.391,1.854s0.817,1.775,0.817,2.9c0,1.652-0.595,3.111-1.784,4.377
		S773.952,168.49,771.69,168.959z"/>
	<path fill="#003C8A" d="M807.743,157.814c-0.328,1.219-0.504,2.836-0.527,4.852h-1.213v-1.406c0-0.914-0.123-1.535-0.369-1.863
		s-0.888-0.677-1.925-1.046s-2.13-0.554-3.278-0.554c-1.875,0-3.349,0.474-4.421,1.422c-1.072,0.947-1.608,2.164-1.608,3.65
		c0,0.936,0.22,1.74,0.659,2.413s1.031,1.158,1.775,1.457c0.744,0.298,2.323,0.562,4.737,0.788c2.414,0.235,4.046,0.546,4.896,0.933
		s1.529,1.009,2.039,1.864s0.765,1.87,0.765,3.043c0,2.356-0.984,4.385-2.953,6.085s-4.594,2.55-7.875,2.55
		c-1.125,0-2.259-0.114-3.401-0.343s-2.294-0.565-3.454-1.011c0.211-1.406,0.311-3.211,0.299-5.414h1.195v0.879
		c0,1.137,0.059,1.84,0.176,2.109s0.393,0.557,0.826,0.861c0.645,0.457,1.412,0.806,2.303,1.046s1.852,0.36,2.883,0.36
		c2.215,0,3.926-0.521,5.133-1.564s1.811-2.367,1.811-3.973c0-0.938-0.205-1.731-0.615-2.382s-0.984-1.134-1.723-1.45
		s-2.104-0.557-4.096-0.721c-2.648-0.211-4.447-0.527-5.396-0.949s-1.693-1.087-2.232-1.995s-0.809-2.036-0.809-3.384
		c0-2.285,0.826-4.154,2.479-5.607s3.938-2.18,6.855-2.18c1.172,0,2.347,0.126,3.524,0.378S806.56,157.299,807.743,157.814z"/>
	<path fill="#003C8A" d="M813.667,179.893c0.188-1.816,0.281-4.992,0.281-9.527v-5.098c0-2.086-0.07-3.885-0.211-5.396
		c-0.082-0.879-0.19-1.389-0.325-1.529s-0.618-0.27-1.45-0.387l-1.406-0.211v-1.107c1.934,0.059,3.234,0.088,3.902,0.088
		l4.729-0.035l3.85-0.07c1.547-0.023,3.135,0.129,4.764,0.457s3.105,0.987,4.43,1.978s2.332,2.232,3.023,3.727
		s1.037,3.22,1.037,5.177c0,3.961-1.333,7.236-3.999,9.826s-6.149,3.885-10.45,3.885l-2.162-0.053
		c-2.121-0.082-3.463-0.123-4.025-0.123c-0.949,0-2.156,0.07-3.621,0.211v-0.844L813.667,179.893z M817.464,179.805
		c1.582,0.234,2.977,0.352,4.184,0.352c3.281,0,5.83-0.844,7.646-2.531c2.191-2.051,3.287-5.039,3.287-8.965
		c0-3.422-0.911-6.029-2.733-7.822s-4.491-2.689-8.007-2.689c-1.23,0-2.689,0.123-4.377,0.369c-0.141,1.125-0.211,2.402-0.211,3.832
		v11.496C817.253,175.967,817.323,177.953,817.464,179.805z"/>
	<path fill="#003C8A" d="M843.427,160.603v12.15c0,2.767,0.053,4.695,0.159,5.785c0.082,0.833,0.221,1.34,0.415,1.521
		s0.757,0.313,1.688,0.396l1.131,0.088v1.107c-1.28-0.082-2.437-0.123-3.47-0.123c-0.717,0-2.361,0.041-4.933,0.123v-1.107h1.266
		c0.762,0,1.26-0.105,1.494-0.316s0.381-0.627,0.439-1.248c0.129-1.289,0.193-3.041,0.193-5.256v-8.736
		c0-1.641-0.018-3.264-0.053-4.869c-0.023-0.68-0.114-1.146-0.272-1.397s-0.39-0.478-0.694-0.677s-0.732-0.299-1.283-0.299h-1.09
		v-1.107c1.488,0.082,2.625,0.123,3.41,0.123c0.844,0,1.77-0.041,2.777-0.123c1.16,1.418,2.253,2.798,3.278,4.14
		s2.089,2.692,3.19,4.052l6.012,7.383c2.168,2.648,3.732,4.488,4.693,5.52v-11.285c0-4.723-0.085-7.304-0.255-7.743
		s-0.847-0.718-2.03-0.835l-1.318-0.123v-1.107c1.887,0.082,3.352,0.123,4.395,0.123c1.09,0,2.496-0.041,4.219-0.123v1.107h-1.354
		c-1.09,0-1.717,0.363-1.881,1.09c-0.105,0.48-0.158,3.047-0.158,7.699v7.928c0,2.133,0.094,4.682,0.281,7.646
		c-1.594-0.246-2.52-0.425-2.777-0.536s-0.504-0.296-0.738-0.554c-1.301-1.442-2.666-3.042-4.096-4.801L843.427,160.603z"/>
	<path fill="#003C8A" d="M881.079,167.506c2.52,0.164,4.336,0.748,5.449,1.751c1.113,1.002,1.67,2.389,1.67,4.16
		c0,2.24-0.935,4.173-2.804,5.797s-4.245,2.437-7.128,2.437l-1.389-0.041c-1.172-0.055-2.162-0.082-2.971-0.082
		c-0.586,0-1.307,0.023-2.162,0.07l-1.459,0.053v-0.791c0.727-0.352,1.157-0.621,1.292-0.809s0.214-0.498,0.237-0.932
		c0.082-1.395,0.123-2.982,0.123-4.764v-10.951c0-2.93-0.105-4.588-0.316-4.975c-0.258-0.457-0.885-0.686-1.881-0.686h-1.195v-1.107
		h1.459l1.617,0.062c0.844,0.041,1.506,0.062,1.986,0.062c0.738,0,2.197-0.036,4.377-0.109l2.566-0.066
		c2.016,0,3.521,0.353,4.518,1.059c1.254,0.895,1.881,2.159,1.881,3.794c0,1.341-0.442,2.517-1.327,3.528
		S883.224,166.823,881.079,167.506z M875.243,167.008c0.586,0.035,1.125,0.053,1.617,0.053c2.332,0,4.002-0.413,5.01-1.239
		s1.512-2.019,1.512-3.577c0-1.348-0.422-2.382-1.266-3.103s-2.191-1.081-4.043-1.081c-0.82,0-1.711,0.076-2.672,0.229
		c-0.105,1.43-0.158,3.592-0.158,6.486V167.008z M875.243,179.893c1.09,0.164,1.992,0.246,2.707,0.246
		c2.074,0,3.683-0.554,4.825-1.661s1.714-2.61,1.714-4.509c0-1.266-0.252-2.312-0.756-3.138s-1.21-1.43-2.118-1.811
		s-2.358-0.571-4.351-0.571c-0.598,0-1.271,0.018-2.021,0.053v6.24l0.018,2.215c0.035,0.797,0.053,1.406,0.053,1.828
		C875.313,179.102,875.29,179.471,875.243,179.893z"/>
	<path fill="#003C8A" d="M897.233,169.223v4.912c0,0.845,0.029,1.837,0.088,2.976c0.07,1.596,0.129,2.479,0.176,2.649
		s0.217,0.343,0.51,0.52c0.293,0.176,0.768,0.264,1.424,0.264h1.195v1.107c-1.523-0.082-2.994-0.123-4.412-0.123
		c-1.371,0-3.334,0.041-5.889,0.123v-1.107h1.09c1.23,0,1.957-0.208,2.18-0.624s0.334-2.323,0.334-5.722v-10.6
		c0-3.07-0.114-4.813-0.343-5.229s-0.882-0.624-1.96-0.624h-1.301v-1.107c1.934,0.082,3.732,0.123,5.396,0.123
		c1.676,0,3.311-0.041,4.904-0.123v1.107h-0.756c-1.09,0-1.764,0.088-2.021,0.265c-0.258,0.176-0.416,0.463-0.475,0.862
		c-0.094,0.646-0.141,2.213-0.141,4.702v4.015c2.086,0.082,4.74,0.123,7.963,0.123c2.73,0,4.951-0.041,6.662-0.123v-3.434
		c0-2.008-0.07-3.692-0.211-5.054c-0.047-0.481-0.205-0.828-0.475-1.039c-0.27-0.212-0.82-0.317-1.652-0.317h-1.266v-1.107
		c1.793,0.082,3.492,0.123,5.098,0.123c1.734,0,3.539-0.041,5.414-0.123v1.107h-1.336c-0.902,0-1.479,0.1-1.731,0.299
		s-0.404,0.565-0.457,1.099s-0.079,2.212-0.079,5.036v9.721c0,3.598,0.103,5.604,0.308,6.021s0.847,0.624,1.925,0.624h1.371v1.107
		c-1.617-0.082-3.287-0.123-5.01-0.123c-1.969,0-3.803,0.041-5.502,0.123v-1.107h1.213c0.891,0,1.465-0.103,1.723-0.308
		c0.258-0.206,0.416-0.59,0.475-1.153c0.129-1.209,0.193-2.97,0.193-5.282v-4.577c-1.652-0.082-3.762-0.123-6.328-0.123
		C901.874,169.1,899.108,169.141,897.233,169.223z"/>
	<path fill="#003C8A" d="M923.39,179.893c0.188-1.816,0.281-4.992,0.281-9.527v-5.098c0-2.086-0.07-3.885-0.211-5.396
		c-0.082-0.879-0.19-1.389-0.325-1.529s-0.618-0.27-1.45-0.387l-1.406-0.211v-1.107c1.934,0.059,3.234,0.088,3.902,0.088
		l4.729-0.035l3.85-0.07c1.547-0.023,3.135,0.129,4.764,0.457s3.105,0.987,4.43,1.978s2.332,2.232,3.023,3.727
		s1.037,3.22,1.037,5.177c0,3.961-1.333,7.236-3.999,9.826s-6.149,3.885-10.45,3.885l-2.162-0.053
		c-2.121-0.082-3.463-0.123-4.025-0.123c-0.949,0-2.156,0.07-3.621,0.211v-0.844L923.39,179.893z M927.187,179.805
		c1.582,0.234,2.977,0.352,4.184,0.352c3.281,0,5.83-0.844,7.646-2.531c2.191-2.051,3.287-5.039,3.287-8.965
		c0-3.422-0.911-6.029-2.733-7.822s-4.491-2.689-8.007-2.689c-1.23,0-2.689,0.123-4.377,0.369c-0.141,1.125-0.211,2.402-0.211,3.832
		v11.496C926.976,175.967,927.046,177.953,927.187,179.805z"/>
</g>
<g>
	<path fill="#003C8A" d="M876.807,208.071l-0.342,0.336c-0.766-0.762-1.35-1.481-1.754-2.16c-0.402-0.68-0.715-1.43-0.936-2.253
		c-0.222-0.823-0.332-1.689-0.332-2.601c0-1.053,0.144-2.025,0.431-2.916s0.649-1.645,1.087-2.263s0.955-1.204,1.552-1.761
		l0.294,0.377c-0.528,0.629-0.944,1.25-1.248,1.862c-0.303,0.612-0.533,1.284-0.689,2.013c-0.158,0.729-0.236,1.57-0.236,2.523
		c0,1.002,0.073,1.89,0.219,2.662s0.354,1.455,0.625,2.047C875.748,206.531,876.191,207.242,876.807,208.071z"/>
	<path fill="#003C8A" d="M882.48,194.79l0.499,0.225v0.117c-0.812,0.214-1.511,0.547-2.099,0.998s-1.046,0.977-1.374,1.578
		s-0.531,1.32-0.608,2.154l0.772-0.564c0.255-0.203,0.487-0.34,0.697-0.41s0.467-0.105,0.772-0.105c0.774,0,1.38,0.229,1.814,0.689
		c0.436,0.459,0.653,1.107,0.653,1.945c0,0.947-0.31,1.752-0.93,2.414s-1.365,0.994-2.235,0.994c-0.856,0-1.557-0.326-2.099-0.979
		c-0.542-0.651-0.813-1.586-0.813-2.803c0-1.007,0.19-1.92,0.57-2.74c0.381-0.82,0.956-1.543,1.727-2.168
		C880.599,195.512,881.482,195.063,882.48,194.79z M880.607,199.589c-0.351,0-0.678,0.086-0.98,0.26
		c-0.304,0.173-0.523,0.389-0.66,0.648c-0.101,0.191-0.15,0.555-0.15,1.088c0,0.906,0.189,1.61,0.567,2.111
		c0.319,0.424,0.74,0.637,1.265,0.637c0.511,0,0.921-0.196,1.23-0.588c0.36-0.456,0.54-1.083,0.54-1.881
		c0-0.742-0.166-1.308-0.499-1.695C881.587,199.782,881.149,199.589,880.607,199.589z"/>
	<path fill="#003C8A" d="M886.227,204.688v-0.396l0.738-0.041c0.405-0.023,0.649-0.063,0.731-0.117s0.137-0.156,0.164-0.303
		c0.055-0.242,0.082-0.695,0.082-1.357v-0.355c-1.761,0-3.005,0.022-3.732,0.068l-0.123-0.41c0.737-1.295,1.336-2.32,1.795-3.076
		c0.46-0.757,1.184-1.898,2.171-3.426c0.241-0.068,0.556-0.193,0.942-0.375l0.191,0.082c-0.028,0.533-0.044,1.455-0.048,2.768v3.508
		c0.59,0,1.098-0.027,1.524-0.082c-0.027,0.219-0.041,0.369-0.041,0.451c0,0.059,0.014,0.246,0.041,0.561
		c-0.485-0.046-0.993-0.068-1.524-0.068c0,1.115,0.036,1.742,0.109,1.882s0.313,0.224,0.718,0.251l0.704,0.041v0.396
		c-0.862-0.032-1.603-0.049-2.219-0.049C888.21,204.64,887.468,204.656,886.227,204.688z M887.942,196.376
		c-0.996,1.449-1.979,3.076-2.947,4.881c0.523,0.018,0.991,0.027,1.405,0.027c0.387,0,0.9-0.01,1.542-0.027V196.376z"/>
	<path fill="#003C8A" d="M891.497,197.517l0.37-1.674c0.292-0.342,0.636-0.598,1.033-0.766c0.396-0.169,0.847-0.254,1.349-0.254
		c0.767,0,1.373,0.199,1.82,0.596s0.671,0.886,0.671,1.469c0,0.393-0.096,0.758-0.287,1.098s-0.581,0.753-1.169,1.24
		c0.292,0,0.593,0.058,0.902,0.172c0.429,0.159,0.753,0.399,0.974,0.721c0.222,0.321,0.332,0.707,0.332,1.158
		c0,0.916-0.395,1.736-1.183,2.461s-1.729,1.088-2.823,1.088c-0.282,0-0.563-0.03-0.841-0.09c-0.278-0.059-0.556-0.148-0.834-0.268
		c-0.091-0.553-0.275-1.235-0.554-2.049l0.376-0.158c0.287,0.664,0.519,1.098,0.694,1.304c0.175,0.206,0.404,0.37,0.687,0.491
		s0.622,0.182,1.019,0.182c0.684,0,1.217-0.211,1.6-0.633s0.574-1.013,0.574-1.773c0-0.643-0.162-1.141-0.485-1.494
		s-0.752-0.529-1.285-0.529c-0.41,0-0.843,0.115-1.299,0.348l-0.096-0.068l0.13-0.779c0.241,0.027,0.422,0.041,0.54,0.041
		c0.556,0,1.011-0.173,1.364-0.52c0.353-0.346,0.529-0.799,0.529-1.359c0-0.511-0.154-0.92-0.462-1.228
		c-0.309-0.308-0.711-0.462-1.209-0.462c-0.329,0-0.645,0.072-0.948,0.216s-0.528,0.307-0.675,0.489
		c-0.059,0.077-0.137,0.262-0.232,0.553l-0.157,0.479H891.497z"/>
	<path fill="#003C8A" d="M898.347,204.688v-0.383l2.365-2.461c0.897-0.93,1.498-1.686,1.802-2.267
		c0.303-0.581,0.454-1.12,0.454-1.616c0-0.615-0.177-1.107-0.53-1.477c-0.353-0.369-0.821-0.555-1.404-0.555
		c-0.383,0-0.729,0.068-1.039,0.205c-0.224,0.101-0.383,0.227-0.479,0.377s-0.237,0.574-0.424,1.271h-0.417
		c0.142-0.889,0.219-1.531,0.232-1.928c0.342-0.36,0.711-0.623,1.107-0.787s0.846-0.246,1.347-0.246c0.884,0,1.587,0.25,2.109,0.749
		c0.521,0.499,0.782,1.154,0.782,1.966c0,0.701-0.235,1.39-0.708,2.064c-0.471,0.674-1.263,1.523-2.375,2.549l-1.326,1.361h2.499
		c1.059,0,1.853-0.032,2.382-0.096l0.068,0.061c-0.041,0.26-0.062,0.445-0.062,0.555c0,0.086,0.021,0.291,0.062,0.615l-0.068,0.041
		c-0.902-0.032-1.905-0.049-3.008-0.049C900.56,204.64,899.436,204.656,898.347,204.688z"/>
	<path fill="#003C8A" d="M906.126,197.948h-0.431c0.032-0.602,0.048-1.153,0.048-1.654c0-0.447-0.025-0.864-0.075-1.252l0.123-0.123
		c0.675,0.051,1.52,0.076,2.536,0.076c1.641,0,2.878-0.025,3.712-0.076v0.404c-2.297,4.109-3.847,7.224-4.648,9.344
		c-0.301-0.018-0.518-0.027-0.649-0.027c-0.196,0-0.419,0.017-0.67,0.049l-0.116-0.178c0.629-0.998,1.693-2.765,3.192-5.299
		c0.702-1.18,1.278-2.198,1.729-3.055l-0.075-0.063l-0.431-0.006c-0.492,0-1.449,0.018-2.871,0.055
		c-0.588,0.018-0.922,0.05-1.002,0.096c-0.079,0.045-0.14,0.129-0.181,0.249s-0.091,0.478-0.15,1.069L906.126,197.948z"/>
	<path fill="#003C8A" d="M914.302,199.69v-0.055c-0.531-0.31-0.905-0.607-1.123-0.895c-0.286-0.383-0.429-0.832-0.429-1.348
		c0-0.747,0.263-1.362,0.787-1.846c0.524-0.482,1.221-0.725,2.088-0.725c0.784,0,1.401,0.188,1.852,0.561
		c0.449,0.374,0.674,0.846,0.674,1.416c0,0.433-0.119,0.83-0.359,1.192c-0.238,0.362-0.687,0.744-1.343,1.146v0.061
		c0.84,0.396,1.396,0.773,1.666,1.132s0.405,0.806,0.405,1.343c0,0.857-0.323,1.597-0.971,2.219s-1.436,0.934-2.365,0.934
		c-0.82,0-1.486-0.24-2-0.719c-0.512-0.479-0.769-1.077-0.769-1.797C912.415,201.192,913.044,200.319,914.302,199.69z
		 M914.865,199.89c-0.493,0.291-0.841,0.583-1.041,0.875c-0.288,0.419-0.432,0.908-0.432,1.469c0,0.639,0.186,1.148,0.558,1.528
		s0.853,0.571,1.442,0.571c0.611,0,1.106-0.188,1.485-0.561c0.379-0.374,0.568-0.859,0.568-1.457c0-0.547-0.17-0.973-0.51-1.277
		C916.596,200.732,915.905,200.35,914.865,199.89z M915.924,198.966c0.439-0.255,0.756-0.539,0.95-0.854s0.292-0.678,0.292-1.088
		c0-0.533-0.149-0.951-0.449-1.254s-0.704-0.455-1.212-0.455s-0.915,0.141-1.222,0.421s-0.46,0.646-0.46,1.097
		c0,0.434,0.129,0.798,0.388,1.094C914.47,198.224,915.04,198.569,915.924,198.966z"/>
	<path fill="#003C8A" d="M919.449,201.913l-0.089-0.096c0.137-0.347,0.253-0.678,0.349-0.992c0.665,0.032,1.219,0.049,1.661,0.049
		c0.364,0,1.034-0.017,2.01-0.049l0.055,0.104c-0.15,0.346-0.262,0.674-0.335,0.984c-0.624-0.041-1.198-0.063-1.723-0.063
		C920.789,201.851,920.146,201.872,919.449,201.913z"/>
	<path fill="#003C8A" d="M928.459,204.798c-0.205-0.611-0.415-1.184-0.629-1.717l-2.447-6.117c-0.351-0.885-0.556-1.367-0.615-1.449
		s-0.255-0.123-0.588-0.123h-0.28v-0.432c0.712,0.032,1.318,0.049,1.817,0.049c0.525,0,1.157-0.017,1.893-0.049v0.432h-0.675
		c-0.231,0-0.381,0.021-0.449,0.064c-0.068,0.045-0.102,0.111-0.102,0.203c0,0.061,0.011,0.127,0.033,0.201l0.885,2.363l1.86,4.742
		l1.808-4.521c0.604-1.509,0.906-2.391,0.906-2.648c0-0.207-0.125-0.314-0.375-0.324l-0.279-0.02l-0.587-0.061v-0.432
		c0.604,0.032,1.103,0.049,1.493,0.049c0.409,0,0.922-0.017,1.54-0.049v0.432h-0.273c-0.219,0-0.377,0.051-0.475,0.153
		c-0.099,0.103-0.275,0.466-0.53,1.091l-2.304,5.625c-0.433,1.058-0.74,1.903-0.923,2.537H928.459z"/>
	<path fill="#003C8A" d="M934.105,194.796l0.342-0.342c0.761,0.757,1.345,1.477,1.75,2.157s0.719,1.433,0.94,2.256
		c0.221,0.823,0.331,1.689,0.331,2.601c0,1.053-0.144,2.023-0.431,2.912s-0.649,1.643-1.087,2.26s-0.955,1.207-1.552,1.768
		l-0.294-0.377c0.528-0.624,0.943-1.244,1.244-1.859s0.531-1.287,0.69-2.016c0.159-0.729,0.239-1.568,0.239-2.516
		c0-1.008-0.074-1.898-0.222-2.674c-0.148-0.774-0.358-1.458-0.629-2.051C935.157,196.323,934.716,195.616,934.105,194.796z"/>
</g>
</svg>
