<?xml version="1.0" encoding="utf-8"?>
<!-- Generator: Adobe Illustrator 16.0.0, SVG Export Plug-In . SVG Version: 6.00 Build 0)  -->
<!DOCTYPE svg PUBLIC "-//W3C//DTD SVG 1.1//EN" "http://www.w3.org/Graphics/SVG/1.1/DTD/svg11.dtd">
<svg version="1.1" id="Calque_1" xmlns="http://www.w3.org/2000/svg" xmlns:xlink="http://www.w3.org/1999/xlink" x="0px" y="0px"
	 width="960px" height="560px" viewBox="0 0 960 560" enable-background="new 0 0 960 560" xml:space="preserve">
<path opacity="0.5" fill-rule="evenodd" clip-rule="evenodd" fill="#7F8080" d="M61.792,467.372
	C60,481.74,79.285,525.859,277.058,528.939c197.778,3.078,237.688-40.019,239.481-51.305
	c3.588-21.205-308.992-45.833-349.804-43.096C125.924,437.276,63.589,453.009,61.792,467.372z"/>
<g>
	<linearGradient id="SVGID_1_" gradientUnits="userSpaceOnUse" x1="553.4609" y1="303.8076" x2="150.8462" y2="308.3828">
		<stop  offset="0" style="stop-color:#FFFFFF"/>
		<stop  offset="1" style="stop-color:#000000"/>
	</linearGradient>
	<path fill="url(#SVGID_1_)" d="M544.444,376.828c-21.1,34.1-88.376,59.025-168.176,59.025c-79.75,0-147.075-24.926-168.15-59.025
		c-4.475-7.225-6.85-3.35-6.85,0.225c0,3.6,0,50.051,0,50.051c0,48.475,78.35,98.725,175,98.725c96.65,0,175-50.25,175-98.725
		c0,0,0-46.451,0-50.051C551.269,373.479,548.868,369.604,544.444,376.828z M544.694,248.953
		c-20.725,30.149-88.301,52.25-168.426,52.25s-147.7-22.101-168.425-52.25c-4.3-6.226-6.575-2.851-6.575-0.025s0,58.901,0,58.901
		c0,44.074,78.35,79.775,175,79.775c96.65,0,175-35.701,175-79.775c0,0,0-56.076,0-58.901S548.97,242.727,544.694,248.953z
		 M376.269,85.828c-96.65,0-175,29.449-175,65.8v31.475c0,38.55,78.35,69.8,175,69.8c96.65,0,175-31.25,175-69.8v-31.45
		C551.269,115.277,472.919,85.828,376.269,85.828z"/>
</g>
<path fill-rule="evenodd" clip-rule="evenodd" fill="#3A72B7" d="M778.58,100.353l45.744,115.705H541.788v-18.836H520.26v18.836
	H318.449v10.765H520.26v10.761h-18.834l-18.836,10.763h-26.908l-2.691,5.383c0,0-116.713-3.364-150.685,40.362
	c-33.971,43.726,121.083,59.196,121.083,59.196l-18.835,21.529h-75.341c0,0-3.812,0-10.764-5.386
	c-6.95-5.381-8.072-8.069-8.072-8.069H283.47c0,0,6.728,11.883,21.526,18.836c14.8,6.949,18.836,5.38,18.836,5.38h344.424v-10.761
	H541.788l10.761-24.222c0,0,47.539,0.451,104.942-13.452c57.405-13.902,91.488-34.981,91.488-34.981l104.939-2.689l37.673,102.251
	c0,0-80.555,5.381-150.685,32.287c-70.129,26.909-102.252,56.509-102.252,56.509L97.803,339.835c0,0,40.179-36.276,91.488-67.27
	c41.713-25.199,86.105-45.743,86.105-45.743l-139.921-2.694v-10.763h172.211c0,0,118.458-49.027,207.247-70.247
	C603.218,122.022,778.48,100.37,778.58,100.353z"/>
<path fill-rule="evenodd" clip-rule="evenodd" fill="#3A72B7" d="M458.372,267.182l-61.889,45.746h-72.65
	c0,0-22.424-31.395,51.125-40.363C448.505,263.597,458.372,267.182,458.372,267.182z"/>
<path fill-rule="evenodd" clip-rule="evenodd" fill="#3A72B7" d="M439.536,302.162l45.743-34.98h72.654l-45.748,34.98H439.536z"/>
<path fill-rule="evenodd" clip-rule="evenodd" fill="#3A72B7" d="M541.788,226.822h285.225l13.456,37.669h-166.83l-21.529-8.071
	h64.582l-10.766-18.837H576.767l-34.979-5.381V226.822z"/>
<path fill-rule="evenodd" clip-rule="evenodd" fill="#3A72B7" d="M428.774,374.817l18.836-18.836h80.723l-10.763,18.836"/>
</svg>
